<svg xmlns="http://www.w3.org/2000/svg" version="1.1" xmlns:xlink="http://www.w3.org/1999/xlink" width="1000" height="1000"><g clip-path="url(#SvgjsClipPath1103)"><rect width="1000" height="1000" fill="#ffffff"></rect><g transform="matrix(3.5335689045936394,0,0,3.5335689045936394,5.684341886080802e-14,5.684341886080802e-14)"><svg xmlns="http://www.w3.org/2000/svg" version="1.1" xmlns:xlink="http://www.w3.org/1999/xlink" width="283" height="283"><svg width="283" height="283" viewBox="0 0 283 283" fill="none" xmlns="http://www.w3.org/2000/svg">
<g clip-path="url(#clip0_2_1452)">
<path d="M283 283H0V0H283V283ZM114.645 183.575C102.999 183.575 106.026 189.183 102.999 203.228H169.964C181.61 203.227 179.905 196.158 181.609 183.575H114.645ZM142.304 80.3975C117.883 80.3976 98.0851 100.195 98.085 124.616C98.085 149.037 117.882 168.835 142.304 168.835C166.725 168.835 186.522 149.038 186.522 124.616C186.522 112.482 185.429 106.403 177.516 98.4131C186.523 98.4129 186.522 93.4991 186.522 80.3975C180.79 80.3974 149.145 80.3975 142.304 80.3975ZM142.304 100.051C155.871 100.051 166.871 111.049 166.871 124.616C166.871 138.184 155.871 149.182 142.304 149.182C128.736 149.181 117.738 138.184 117.738 124.616C117.738 111.049 128.737 100.051 142.304 100.051Z" fill="#2A282A"></path>
</g>
<defs>
<clipPath id="clip0_2_1452">
<rect width="283" height="283" fill="white"></rect>
</clipPath>
<clipPath id="SvgjsClipPath1103"><rect width="1000" height="1000" x="0" y="0" rx="0" ry="0"></rect></clipPath></defs>
</svg></svg></g></g></svg>