<svg width="400" height="120" viewBox="0 0 400 120" fill="none" xmlns="http://www.w3.org/2000/svg">
<rect width="120" height="120" fill="white"/>
<path d="M39.1176 87.2709C31.2987 87.2709 33.3312 91.0362 31.2987 100.465L76.2575 100.465C84.0765 100.465 82.932 95.7189 84.0765 87.2709L39.1176 87.2709Z" fill="#253551"/>
<path d="M87.375 18C87.375 26.7963 87.3746 30.0947 81.3271 30.0947C86.6404 35.459 87.375 39.5408 87.375 47.6875C87.375 64.0835 74.0835 77.375 57.6875 77.375C41.2915 77.375 28 64.0835 28 47.6875C28 31.2916 41.2916 18 57.6875 18C62.2804 18 83.5266 18 87.375 18ZM57.6875 31.1944C48.5787 31.1944 41.1944 38.5787 41.1943 47.6875C41.1943 56.7964 48.5787 64.1806 57.6875 64.1807C66.7964 64.1807 74.1807 56.7964 74.1807 47.6875C74.1806 38.5787 66.7964 31.1944 57.6875 31.1944Z" fill="#253551"/>
<path d="M163.116 31.9856C162.561 30.9641 161.759 30.1906 160.708 29.6653C159.686 29.1107 158.475 28.8334 157.074 28.8334C154.652 28.8334 152.711 29.6361 151.251 31.2413C149.792 32.8174 149.062 34.9335 149.062 37.5894C149.062 40.4205 149.821 42.6387 151.339 44.244C152.886 45.8201 155.002 46.6081 157.687 46.6081C159.526 46.6081 161.073 46.1411 162.328 45.2072C163.612 44.2732 164.546 42.9306 165.13 41.1794H155.629V35.6631H171.916V42.6241C171.361 44.4921 170.413 46.2287 169.07 47.834C167.757 49.4392 166.078 50.738 164.035 51.7304C161.992 52.7227 159.686 53.2189 157.118 53.2189C154.083 53.2189 151.368 52.5622 148.975 51.2488C146.611 49.9062 144.757 48.0529 143.415 45.6887C142.101 43.3246 141.445 40.6249 141.445 37.5894C141.445 34.554 142.101 31.8543 143.415 29.4901C144.757 27.0968 146.611 25.2435 148.975 23.9301C151.339 22.5875 154.039 21.9162 157.074 21.9162C160.752 21.9162 163.846 22.8064 166.356 24.5868C168.895 26.3672 170.573 28.8334 171.39 31.9856H163.116ZM187.183 53.3502C184.789 53.3502 182.629 52.8395 180.703 51.8179C178.806 50.7964 177.303 49.3371 176.194 47.4399C175.114 45.5428 174.574 43.3246 174.574 40.7854C174.574 38.2753 175.128 36.0717 176.238 34.1746C177.347 32.2483 178.864 30.7744 180.791 29.7528C182.717 28.7313 184.877 28.2205 187.27 28.2205C189.663 28.2205 191.823 28.7313 193.75 29.7528C195.676 30.7744 197.194 32.2483 198.303 34.1746C199.412 36.0717 199.966 38.2753 199.966 40.7854C199.966 43.2954 199.397 45.5136 198.259 47.4399C197.15 49.3371 195.617 50.7964 193.662 51.8179C191.736 52.8395 189.576 53.3502 187.183 53.3502ZM187.183 46.8708C188.613 46.8708 189.824 46.3454 190.816 45.2947C191.838 44.244 192.349 42.7409 192.349 40.7854C192.349 38.8299 191.852 37.3268 190.86 36.276C189.897 35.2253 188.7 34.7 187.27 34.7C185.811 34.7 184.6 35.2253 183.636 36.276C182.673 37.2976 182.192 38.8007 182.192 40.7854C182.192 42.7409 182.659 44.244 183.593 45.2947C184.556 46.3454 185.752 46.8708 187.183 46.8708ZM215.058 53.3502C212.665 53.3502 210.505 52.8395 208.579 51.8179C206.681 50.7964 205.178 49.3371 204.069 47.4399C202.989 45.5428 202.449 43.3246 202.449 40.7854C202.449 38.2753 203.004 36.0717 204.113 34.1746C205.222 32.2483 206.74 30.7744 208.666 29.7528C210.593 28.7313 212.752 28.2205 215.146 28.2205C217.539 28.2205 219.699 28.7313 221.625 29.7528C223.551 30.7744 225.069 32.2483 226.178 34.1746C227.287 36.0717 227.842 38.2753 227.842 40.7854C227.842 43.2954 227.273 45.5136 226.134 47.4399C225.025 49.3371 223.493 50.7964 221.538 51.8179C219.611 52.8395 217.451 53.3502 215.058 53.3502ZM215.058 46.8708C216.488 46.8708 217.699 46.3454 218.692 45.2947C219.713 44.244 220.224 42.7409 220.224 40.7854C220.224 38.8299 219.728 37.3268 218.736 36.276C217.772 35.2253 216.576 34.7 215.146 34.7C213.686 34.7 212.475 35.2253 211.512 36.276C210.549 37.2976 210.067 38.8007 210.067 40.7854C210.067 42.7409 210.534 44.244 211.468 45.2947C212.431 46.3454 213.628 46.8708 215.058 46.8708ZM230.325 40.7416C230.325 38.2315 230.792 36.028 231.726 34.1308C232.689 32.2337 233.988 30.7744 235.622 29.7528C237.257 28.7313 239.081 28.2205 241.095 28.2205C242.7 28.2205 244.159 28.5562 245.473 29.2275C246.815 29.8988 247.866 30.8035 248.625 31.9418V20.6028H256.111V53H248.625V49.4976C247.925 50.6651 246.918 51.599 245.604 52.2995C244.32 53 242.817 53.3502 241.095 53.3502C239.081 53.3502 237.257 52.8395 235.622 51.8179C233.988 50.7672 232.689 49.2933 231.726 47.3962C230.792 45.4698 230.325 43.2517 230.325 40.7416ZM248.625 40.7854C248.625 38.9174 248.1 37.4435 247.049 36.3636C246.027 35.2837 244.772 34.7437 243.284 34.7437C241.795 34.7437 240.526 35.2837 239.475 36.3636C238.453 37.4143 237.943 38.8737 237.943 40.7416C237.943 42.6095 238.453 44.0981 239.475 45.2072C240.526 46.2871 241.795 46.827 243.284 46.827C244.772 46.827 246.027 46.2871 247.049 45.2072C248.1 44.1273 248.625 42.6533 248.625 40.7854ZM161.846 94.5713H150.376L148.537 100H140.7L151.821 69.2664H160.489L171.609 100H163.685L161.846 94.5713ZM159.92 88.7923L156.111 77.5409L152.346 88.7923H159.92ZM189.879 75.3081C192.739 75.3081 195.016 76.2421 196.708 78.11C198.43 79.9488 199.291 82.488 199.291 85.7277V100H191.849V86.7347C191.849 85.1002 191.426 83.8306 190.579 82.9258C189.733 82.021 188.595 81.5686 187.164 81.5686C185.734 81.5686 184.596 82.021 183.75 82.9258C182.903 83.8306 182.48 85.1002 182.48 86.7347V100H174.994V75.5708H182.48V78.8105C183.239 77.7306 184.26 76.8842 185.545 76.2712C186.829 75.6291 188.273 75.3081 189.879 75.3081ZM203.005 87.7854C203.005 85.2461 203.516 83.028 204.538 81.1308C205.588 79.2337 207.033 77.7744 208.872 76.7528C210.74 75.7313 212.87 75.2205 215.264 75.2205C218.328 75.2205 220.882 76.0232 222.925 77.6284C224.997 79.2337 226.355 81.4957 226.997 84.4143H219.029C218.357 82.5464 217.059 81.6124 215.132 81.6124C213.761 81.6124 212.666 82.1524 211.849 83.2323C211.032 84.283 210.623 85.8007 210.623 87.7854C210.623 89.7701 211.032 91.3024 211.849 92.3823C212.666 93.433 213.761 93.9584 215.132 93.9584C217.059 93.9584 218.357 93.0244 219.029 91.1564H226.997C226.355 94.0167 224.997 96.2641 222.925 97.8986C220.853 99.533 218.299 100.35 215.264 100.35C212.87 100.35 210.74 99.8395 208.872 98.8179C207.033 97.7964 205.588 96.3371 204.538 94.4399C203.516 92.5428 203.005 90.3246 203.005 87.7854ZM254.029 87.3914C254.029 88.0918 253.986 88.8215 253.898 89.5804H236.955C237.072 91.0981 237.554 92.2655 238.4 93.0828C239.276 93.8708 240.341 94.2648 241.596 94.2648C243.464 94.2648 244.763 93.4768 245.492 91.9007H253.46C253.052 93.506 252.307 94.9507 251.228 96.2349C250.177 97.5191 248.849 98.5261 247.244 99.2557C245.638 99.9854 243.843 100.35 241.859 100.35C239.465 100.35 237.335 99.8395 235.467 98.8179C233.599 97.7964 232.139 96.3371 231.089 94.4399C230.038 92.5428 229.513 90.3246 229.513 87.7854C229.513 85.2461 230.023 83.028 231.045 81.1308C232.096 79.2337 233.555 77.7744 235.423 76.7528C237.291 75.7313 239.436 75.2205 241.859 75.2205C244.223 75.2205 246.324 75.7167 248.163 76.709C250.002 77.7014 251.432 79.1169 252.453 80.9557C253.504 82.7945 254.029 84.9397 254.029 87.3914ZM246.368 85.4213C246.368 84.137 245.93 83.1155 245.055 82.3567C244.179 81.5978 243.084 81.2184 241.771 81.2184C240.516 81.2184 239.451 81.5832 238.575 82.3129C237.729 83.0425 237.203 84.0787 236.999 85.4213H246.368ZM267.917 100.35C265.786 100.35 263.889 99.9854 262.226 99.2557C260.562 98.5261 259.249 97.5337 258.285 96.2787C257.322 94.9945 256.782 93.5643 256.665 91.9883H264.064C264.152 92.8347 264.546 93.5206 265.246 94.0459C265.947 94.5713 266.808 94.834 267.829 94.834C268.763 94.834 269.478 94.6588 269.975 94.3086C270.5 93.9292 270.763 93.4476 270.763 92.8639C270.763 92.1634 270.398 91.6526 269.668 91.3316C268.938 90.9813 267.756 90.6019 266.122 90.1933C264.371 89.7847 262.911 89.3615 261.744 88.9237C260.576 88.4567 259.57 87.7416 258.723 86.7784C257.877 85.7861 257.454 84.4581 257.454 82.7945C257.454 81.3935 257.833 80.1239 258.592 78.9856C259.38 77.8181 260.518 76.8988 262.007 76.2275C263.524 75.5562 265.319 75.2205 267.392 75.2205C270.456 75.2205 272.864 75.9794 274.615 77.4971C276.396 79.0148 277.417 81.0287 277.68 83.5387H270.763C270.646 82.6923 270.266 82.021 269.624 81.5248C269.011 81.0287 268.194 80.7806 267.173 80.7806C266.297 80.7806 265.626 80.9557 265.159 81.3059C264.692 81.627 264.458 82.0794 264.458 82.6631C264.458 83.3636 264.823 83.889 265.553 84.2392C266.312 84.5894 267.479 84.9397 269.055 85.2899C270.865 85.7569 272.339 86.2239 273.477 86.6909C274.615 87.1287 275.608 87.8583 276.454 88.8799C277.33 89.8722 277.782 91.2148 277.811 92.9076C277.811 94.3378 277.403 95.622 276.585 96.7603C275.797 97.8694 274.644 98.745 273.127 99.3871C271.638 100.029 269.902 100.35 267.917 100.35ZM296.007 93.6519V100H292.198C289.484 100 287.368 99.3433 285.85 98.0299C284.332 96.6873 283.573 94.5129 283.573 91.5067V81.7875H280.596V75.5708H283.573V69.6167H291.06V75.5708H295.963V81.7875H291.06V91.5942C291.06 92.3239 291.235 92.8493 291.585 93.1703C291.935 93.4914 292.519 93.6519 293.336 93.6519H296.007ZM311.297 100.35C308.904 100.35 306.744 99.8395 304.818 98.8179C302.921 97.7964 301.417 96.3371 300.308 94.4399C299.228 92.5428 298.688 90.3246 298.688 87.7854C298.688 85.2753 299.243 83.0717 300.352 81.1746C301.461 79.2483 302.979 77.7744 304.905 76.7528C306.832 75.7313 308.991 75.2205 311.385 75.2205C313.778 75.2205 315.938 75.7313 317.864 76.7528C319.79 77.7744 321.308 79.2483 322.417 81.1746C323.526 83.0717 324.081 85.2753 324.081 87.7854C324.081 90.2954 323.512 92.5136 322.373 94.4399C321.264 96.3371 319.732 97.7964 317.777 98.8179C315.85 99.8395 313.69 100.35 311.297 100.35ZM311.297 93.8708C312.727 93.8708 313.939 93.3454 314.931 92.2947C315.952 91.244 316.463 89.7409 316.463 87.7854C316.463 85.8299 315.967 84.3268 314.975 83.276C314.011 82.2253 312.815 81.7 311.385 81.7C309.925 81.7 308.714 82.2253 307.751 83.276C306.788 84.2976 306.306 85.8007 306.306 87.7854C306.306 89.7409 306.773 91.244 307.707 92.2947C308.67 93.3454 309.867 93.8708 311.297 93.8708ZM335.539 79.6423C336.415 78.2997 337.509 77.249 338.822 76.4901C340.136 75.7021 341.595 75.3081 343.2 75.3081V83.2323H341.143C339.275 83.2323 337.874 83.6409 336.94 84.4581C336.006 85.2461 335.539 86.6471 335.539 88.661V100H328.053V75.5708H335.539V79.6423ZM356.717 100.35C354.586 100.35 352.689 99.9854 351.025 99.2557C349.362 98.5261 348.048 97.5337 347.085 96.2787C346.122 94.9945 345.582 93.5643 345.465 91.9883H352.864C352.952 92.8347 353.346 93.5206 354.046 94.0459C354.747 94.5713 355.608 94.834 356.629 94.834C357.563 94.834 358.278 94.6588 358.774 94.3086C359.3 93.9292 359.563 93.4476 359.563 92.8639C359.563 92.1634 359.198 91.6526 358.468 91.3316C357.738 90.9813 356.556 90.6019 354.922 90.1933C353.171 89.7847 351.711 89.3615 350.544 88.9237C349.376 88.4567 348.369 87.7416 347.523 86.7784C346.677 85.7861 346.253 84.4581 346.253 82.7945C346.253 81.3935 346.633 80.1239 347.392 78.9856C348.18 77.8181 349.318 76.8988 350.807 76.2275C352.324 75.5562 354.119 75.2205 356.191 75.2205C359.256 75.2205 361.664 75.9794 363.415 77.4971C365.196 79.0148 366.217 81.0287 366.48 83.5387H359.563C359.446 82.6923 359.066 82.021 358.424 81.5248C357.811 81.0287 356.994 80.7806 355.973 80.7806C355.097 80.7806 354.426 80.9557 353.959 81.3059C353.492 81.627 353.258 82.0794 353.258 82.6631C353.258 83.3636 353.623 83.889 354.353 84.2392C355.112 84.5894 356.279 84.9397 357.855 85.2899C359.665 85.7569 361.139 86.2239 362.277 86.6909C363.415 87.1287 364.407 87.8583 365.254 88.8799C366.13 89.8722 366.582 91.2148 366.611 92.9076C366.611 94.3378 366.202 95.622 365.385 96.7603C364.597 97.8694 363.444 98.745 361.927 99.3871C360.438 100.029 358.702 100.35 356.717 100.35Z" fill="white"/>
</svg>
