<svg width="281" height="283" viewBox="0 0 281 283" fill="none" xmlns="http://www.w3.org/2000/svg">
<g clip-path="url(#clip0_2_1451)">
<path d="M281 283H0V0H281V283ZM114.485 183.575C102.856 183.575 105.879 189.183 102.855 203.228H169.727C181.356 203.228 179.654 196.158 181.356 183.575H114.485ZM142.105 80.3975C117.718 80.3976 97.9484 100.195 97.9482 124.616C97.9482 149.037 117.718 168.835 142.105 168.835C166.493 168.835 186.263 149.038 186.263 124.616C186.263 112.482 185.17 106.403 177.268 98.4131C186.263 98.4131 186.263 93.4993 186.263 80.3975H142.105ZM142.105 100.051C155.654 100.051 166.638 111.049 166.638 124.616C166.638 138.184 155.654 149.183 142.105 149.183C128.557 149.182 117.574 138.184 117.574 124.616C117.574 111.049 128.557 100.051 142.105 100.051Z" fill="white"/>
</g>
<defs>
<clipPath id="clip0_2_1451">
<rect width="281" height="283" fill="white"/>
</clipPath>
</defs>
</svg>
